M48
; DRILL file {KiCad (5.1.9-0-10_14)} date Sunday, March 07, 2021 at 04:19:13 PM
; FORMAT={-:-/ absolute / inch / decimal}
; #@! TF.CreationDate,2021-03-07T16:19:13+01:00
; #@! TF.GenerationSoftware,Kicad,Pcbnew,(5.1.9-0-10_14)
FMAT,2
INCH
T1C0.0394
T2C0.0591
T3C0.1260
%
G90
G05
T1
X5.4331Y-3.837
X5.4331Y-3.937
X5.4331Y-4.037
X6.378Y-3.837
X6.378Y-3.937
X6.378Y-4.037
T2
X5.6508Y-3.8465
X5.6508Y-4.0965
X5.6508Y-4.3461
X5.7008Y-3.7213
X5.7008Y-3.9713
X5.7008Y-4.2213
X6.1008Y-4.4594
X6.1508Y-3.8465
X6.1508Y-4.0965
X6.1508Y-4.3461
X6.2008Y-3.7213
X6.2008Y-3.9713
X6.2008Y-4.2213
T3
X5.4724Y-3.5039
X5.4724Y-4.3701
X6.3386Y-3.5039
X6.3386Y-4.3701
T0
M30
