%TF.GenerationSoftware,KiCad,Pcbnew,(5.1.9-0-10_14)*%
%TF.CreationDate,2021-03-13T12:52:40+01:00*%
%TF.ProjectId,Klinke Dual,4b6c696e-6b65-4204-9475-616c2e6b6963,rev?*%
%TF.SameCoordinates,Original*%
%TF.FileFunction,Copper,L2,Bot*%
%TF.FilePolarity,Positive*%
%FSLAX46Y46*%
G04 Gerber Fmt 4.6, Leading zero omitted, Abs format (unit mm)*
G04 Created by KiCad (PCBNEW (5.1.9-0-10_14)) date 2021-03-13 12:52:40*
%MOMM*%
%LPD*%
G01*
G04 APERTURE LIST*
%TA.AperFunction,ComponentPad*%
%ADD10O,1.700000X1.700000*%
%TD*%
%TA.AperFunction,ComponentPad*%
%ADD11R,1.700000X1.700000*%
%TD*%
%TA.AperFunction,ComponentPad*%
%ADD12C,3.000000*%
%TD*%
%TA.AperFunction,ComponentPad*%
%ADD13C,2.900000*%
%TD*%
%TA.AperFunction,ComponentPad*%
%ADD14C,5.600000*%
%TD*%
%TA.AperFunction,ViaPad*%
%ADD15C,0.600000*%
%TD*%
%TA.AperFunction,Conductor*%
%ADD16C,0.400000*%
%TD*%
%TA.AperFunction,Conductor*%
%ADD17C,0.254000*%
%TD*%
%TA.AperFunction,Conductor*%
%ADD18C,0.100000*%
%TD*%
G04 APERTURE END LIST*
D10*
%TO.P,J2,3*%
%TO.N,/RIGHT1*%
X156985000Y-88570000D03*
%TO.P,J2,2*%
%TO.N,/LEFT1*%
X154445000Y-88570000D03*
D11*
%TO.P,J2,1*%
%TO.N,/GND1*%
X151905000Y-88570000D03*
%TD*%
D12*
%TO.P,J1,RN2*%
%TO.N,Net-(J1-PadRN2)*%
X143030000Y-104050000D03*
%TO.P,J1,RN1*%
%TO.N,Net-(J1-PadRN1)*%
X144300000Y-100870000D03*
%TO.P,J1,R2*%
%TO.N,/RIGHT2*%
X155730000Y-104050000D03*
%TO.P,J1,R1*%
%TO.N,/RIGHT1*%
X157000000Y-100870000D03*
%TO.P,J1,SN2*%
%TO.N,Net-(J1-PadSN2)*%
X143030000Y-110390000D03*
%TO.P,J1,SN1*%
%TO.N,Net-(J1-PadSN1)*%
X144300000Y-107220000D03*
%TO.P,J1,TN2*%
%TO.N,Net-(J1-PadTN2)*%
X143030000Y-97700000D03*
%TO.P,J1,TN1*%
%TO.N,Net-(J1-PadTN1)*%
X144300000Y-94520000D03*
%TO.P,J1,S2*%
%TO.N,/GND2*%
X155730000Y-110390000D03*
%TO.P,J1,S1*%
%TO.N,/GND1*%
X157000000Y-107220000D03*
%TO.P,J1,T2*%
%TO.N,/LEFT2*%
X155730000Y-97700000D03*
%TO.P,J1,T1*%
%TO.N,/LEFT1*%
X157000000Y-94520000D03*
D13*
%TO.P,J1,G*%
%TO.N,Earth*%
X154460000Y-113270000D03*
%TD*%
D14*
%TO.P,H1,1*%
%TO.N,Earth*%
X145000000Y-84000000D03*
%TD*%
%TO.P,H2,1*%
%TO.N,Earth*%
X155000000Y-84000000D03*
%TD*%
D10*
%TO.P,J3,3*%
%TO.N,/RIGHT2*%
X148095000Y-88570000D03*
%TO.P,J3,2*%
%TO.N,/LEFT2*%
X145555000Y-88570000D03*
D11*
%TO.P,J3,1*%
%TO.N,/GND2*%
X143015000Y-88570000D03*
%TD*%
D15*
%TO.N,Earth*%
X148500000Y-81500000D03*
%TD*%
D16*
%TO.N,/RIGHT1*%
X156985000Y-88570000D02*
X156985000Y-90015000D01*
X157000000Y-100870000D02*
X153870000Y-100870000D01*
X153000000Y-100000000D02*
X153000000Y-94000000D01*
X153870000Y-100870000D02*
X153000000Y-100000000D01*
X156985000Y-90015000D02*
X153000000Y-94000000D01*
%TD*%
D17*
%TO.N,Earth*%
X158114994Y-80419222D02*
X158225614Y-80452620D01*
X158327639Y-80506868D01*
X158417179Y-80579895D01*
X158490833Y-80668925D01*
X158545792Y-80770572D01*
X158579960Y-80880949D01*
X158594001Y-81014538D01*
X158594001Y-86619000D01*
X151000000Y-86619000D01*
X150925671Y-86626321D01*
X150854198Y-86648002D01*
X150788328Y-86683210D01*
X150730592Y-86730592D01*
X150683210Y-86788328D01*
X150648002Y-86854198D01*
X150626321Y-86925671D01*
X150619000Y-87000000D01*
X150619000Y-108000000D01*
X150626321Y-108074329D01*
X150648002Y-108145802D01*
X150683210Y-108211672D01*
X150730592Y-108269408D01*
X153730592Y-111269408D01*
X153788328Y-111316790D01*
X153854198Y-111351998D01*
X153925671Y-111373679D01*
X154000000Y-111381000D01*
X154129906Y-111381000D01*
X154268932Y-111589067D01*
X154530933Y-111851068D01*
X154839013Y-112056920D01*
X155181333Y-112198714D01*
X155544738Y-112271000D01*
X155915262Y-112271000D01*
X156278667Y-112198714D01*
X156620987Y-112056920D01*
X156929067Y-111851068D01*
X157191068Y-111589067D01*
X157330094Y-111381000D01*
X158594000Y-111381000D01*
X158594000Y-113980146D01*
X158580778Y-114114994D01*
X158547379Y-114225615D01*
X158493132Y-114327639D01*
X158420106Y-114417179D01*
X158331072Y-114490834D01*
X158229428Y-114545792D01*
X158119051Y-114579960D01*
X157985472Y-114594000D01*
X142019854Y-114594000D01*
X141885006Y-114580778D01*
X141774385Y-114547379D01*
X141672361Y-114493132D01*
X141582821Y-114420106D01*
X141509166Y-114331072D01*
X141454208Y-114229428D01*
X141420040Y-114119051D01*
X141406000Y-113985472D01*
X141406000Y-111367712D01*
X141424848Y-111373429D01*
X141568932Y-111589067D01*
X141830933Y-111851068D01*
X142139013Y-112056920D01*
X142481333Y-112198714D01*
X142844738Y-112271000D01*
X143215262Y-112271000D01*
X143578667Y-112198714D01*
X143920987Y-112056920D01*
X144229067Y-111851068D01*
X144491068Y-111589067D01*
X144630094Y-111381000D01*
X145000000Y-111381000D01*
X145074329Y-111373679D01*
X145145802Y-111351998D01*
X145211672Y-111316790D01*
X145269408Y-111269408D01*
X145733927Y-110804889D01*
X148019000Y-110804889D01*
X148019000Y-111195111D01*
X148095129Y-111577836D01*
X148244461Y-111938355D01*
X148461257Y-112262814D01*
X148737186Y-112538743D01*
X149061645Y-112755539D01*
X149422164Y-112904871D01*
X149804889Y-112981000D01*
X150195111Y-112981000D01*
X150577836Y-112904871D01*
X150938355Y-112755539D01*
X151262814Y-112538743D01*
X151538743Y-112262814D01*
X151755539Y-111938355D01*
X151904871Y-111577836D01*
X151981000Y-111195111D01*
X151981000Y-110804889D01*
X151904871Y-110422164D01*
X151755539Y-110061645D01*
X151538743Y-109737186D01*
X151262814Y-109461257D01*
X150938355Y-109244461D01*
X150577836Y-109095129D01*
X150195111Y-109019000D01*
X149804889Y-109019000D01*
X149422164Y-109095129D01*
X149061645Y-109244461D01*
X148737186Y-109461257D01*
X148461257Y-109737186D01*
X148244461Y-110061645D01*
X148095129Y-110422164D01*
X148019000Y-110804889D01*
X145733927Y-110804889D01*
X148269408Y-108269408D01*
X148316790Y-108211672D01*
X148351998Y-108145802D01*
X148373679Y-108074329D01*
X148381000Y-108000000D01*
X148381000Y-89768227D01*
X148454069Y-89753693D01*
X148678097Y-89660898D01*
X148879717Y-89526180D01*
X149051180Y-89354717D01*
X149185898Y-89153097D01*
X149278693Y-88929069D01*
X149326000Y-88691243D01*
X149326000Y-88448757D01*
X149278693Y-88210931D01*
X149185898Y-87986903D01*
X149051180Y-87785283D01*
X148879717Y-87613820D01*
X148678097Y-87479102D01*
X148454069Y-87386307D01*
X148381000Y-87371773D01*
X148381000Y-87000000D01*
X148373679Y-86925671D01*
X148351998Y-86854198D01*
X148316790Y-86788328D01*
X148269408Y-86730592D01*
X148211672Y-86683210D01*
X148145802Y-86648002D01*
X148074329Y-86626321D01*
X148000000Y-86619000D01*
X141406000Y-86619000D01*
X141406000Y-81019854D01*
X141419222Y-80885006D01*
X141452620Y-80774386D01*
X141506868Y-80672361D01*
X141579895Y-80582821D01*
X141668925Y-80509167D01*
X141770572Y-80454208D01*
X141880949Y-80420040D01*
X142014528Y-80406000D01*
X157980146Y-80406000D01*
X158114994Y-80419222D01*
%TA.AperFunction,Conductor*%
D18*
G36*
X158114994Y-80419222D02*
G01*
X158225614Y-80452620D01*
X158327639Y-80506868D01*
X158417179Y-80579895D01*
X158490833Y-80668925D01*
X158545792Y-80770572D01*
X158579960Y-80880949D01*
X158594001Y-81014538D01*
X158594001Y-86619000D01*
X151000000Y-86619000D01*
X150925671Y-86626321D01*
X150854198Y-86648002D01*
X150788328Y-86683210D01*
X150730592Y-86730592D01*
X150683210Y-86788328D01*
X150648002Y-86854198D01*
X150626321Y-86925671D01*
X150619000Y-87000000D01*
X150619000Y-108000000D01*
X150626321Y-108074329D01*
X150648002Y-108145802D01*
X150683210Y-108211672D01*
X150730592Y-108269408D01*
X153730592Y-111269408D01*
X153788328Y-111316790D01*
X153854198Y-111351998D01*
X153925671Y-111373679D01*
X154000000Y-111381000D01*
X154129906Y-111381000D01*
X154268932Y-111589067D01*
X154530933Y-111851068D01*
X154839013Y-112056920D01*
X155181333Y-112198714D01*
X155544738Y-112271000D01*
X155915262Y-112271000D01*
X156278667Y-112198714D01*
X156620987Y-112056920D01*
X156929067Y-111851068D01*
X157191068Y-111589067D01*
X157330094Y-111381000D01*
X158594000Y-111381000D01*
X158594000Y-113980146D01*
X158580778Y-114114994D01*
X158547379Y-114225615D01*
X158493132Y-114327639D01*
X158420106Y-114417179D01*
X158331072Y-114490834D01*
X158229428Y-114545792D01*
X158119051Y-114579960D01*
X157985472Y-114594000D01*
X142019854Y-114594000D01*
X141885006Y-114580778D01*
X141774385Y-114547379D01*
X141672361Y-114493132D01*
X141582821Y-114420106D01*
X141509166Y-114331072D01*
X141454208Y-114229428D01*
X141420040Y-114119051D01*
X141406000Y-113985472D01*
X141406000Y-111367712D01*
X141424848Y-111373429D01*
X141568932Y-111589067D01*
X141830933Y-111851068D01*
X142139013Y-112056920D01*
X142481333Y-112198714D01*
X142844738Y-112271000D01*
X143215262Y-112271000D01*
X143578667Y-112198714D01*
X143920987Y-112056920D01*
X144229067Y-111851068D01*
X144491068Y-111589067D01*
X144630094Y-111381000D01*
X145000000Y-111381000D01*
X145074329Y-111373679D01*
X145145802Y-111351998D01*
X145211672Y-111316790D01*
X145269408Y-111269408D01*
X145733927Y-110804889D01*
X148019000Y-110804889D01*
X148019000Y-111195111D01*
X148095129Y-111577836D01*
X148244461Y-111938355D01*
X148461257Y-112262814D01*
X148737186Y-112538743D01*
X149061645Y-112755539D01*
X149422164Y-112904871D01*
X149804889Y-112981000D01*
X150195111Y-112981000D01*
X150577836Y-112904871D01*
X150938355Y-112755539D01*
X151262814Y-112538743D01*
X151538743Y-112262814D01*
X151755539Y-111938355D01*
X151904871Y-111577836D01*
X151981000Y-111195111D01*
X151981000Y-110804889D01*
X151904871Y-110422164D01*
X151755539Y-110061645D01*
X151538743Y-109737186D01*
X151262814Y-109461257D01*
X150938355Y-109244461D01*
X150577836Y-109095129D01*
X150195111Y-109019000D01*
X149804889Y-109019000D01*
X149422164Y-109095129D01*
X149061645Y-109244461D01*
X148737186Y-109461257D01*
X148461257Y-109737186D01*
X148244461Y-110061645D01*
X148095129Y-110422164D01*
X148019000Y-110804889D01*
X145733927Y-110804889D01*
X148269408Y-108269408D01*
X148316790Y-108211672D01*
X148351998Y-108145802D01*
X148373679Y-108074329D01*
X148381000Y-108000000D01*
X148381000Y-89768227D01*
X148454069Y-89753693D01*
X148678097Y-89660898D01*
X148879717Y-89526180D01*
X149051180Y-89354717D01*
X149185898Y-89153097D01*
X149278693Y-88929069D01*
X149326000Y-88691243D01*
X149326000Y-88448757D01*
X149278693Y-88210931D01*
X149185898Y-87986903D01*
X149051180Y-87785283D01*
X148879717Y-87613820D01*
X148678097Y-87479102D01*
X148454069Y-87386307D01*
X148381000Y-87371773D01*
X148381000Y-87000000D01*
X148373679Y-86925671D01*
X148351998Y-86854198D01*
X148316790Y-86788328D01*
X148269408Y-86730592D01*
X148211672Y-86683210D01*
X148145802Y-86648002D01*
X148074329Y-86626321D01*
X148000000Y-86619000D01*
X141406000Y-86619000D01*
X141406000Y-81019854D01*
X141419222Y-80885006D01*
X141452620Y-80774386D01*
X141506868Y-80672361D01*
X141579895Y-80582821D01*
X141668925Y-80509167D01*
X141770572Y-80454208D01*
X141880949Y-80420040D01*
X142014528Y-80406000D01*
X157980146Y-80406000D01*
X158114994Y-80419222D01*
G37*
%TD.AperFunction*%
%TD*%
D17*
%TO.N,/GND2*%
X144686699Y-87181000D02*
X145313301Y-87181000D01*
X145584775Y-87127000D01*
X147873000Y-87127000D01*
X147873000Y-87359042D01*
X147735931Y-87386307D01*
X147511903Y-87479102D01*
X147310283Y-87613820D01*
X147138820Y-87785283D01*
X147004102Y-87986903D01*
X146911307Y-88210931D01*
X146864000Y-88448757D01*
X146864000Y-88691243D01*
X146911307Y-88929069D01*
X147004102Y-89153097D01*
X147138820Y-89354717D01*
X147310283Y-89526180D01*
X147511903Y-89660898D01*
X147735931Y-89753693D01*
X147873000Y-89780958D01*
X147873000Y-107947394D01*
X144947394Y-110873000D01*
X144851776Y-110873000D01*
X144911000Y-110575262D01*
X144911000Y-110204738D01*
X144838714Y-109841333D01*
X144696920Y-109499013D01*
X144491068Y-109190933D01*
X144401135Y-109101000D01*
X144485262Y-109101000D01*
X144848667Y-109028714D01*
X145190987Y-108886920D01*
X145499067Y-108681068D01*
X145761068Y-108419067D01*
X145966920Y-108110987D01*
X146108714Y-107768667D01*
X146181000Y-107405262D01*
X146181000Y-107034738D01*
X146108714Y-106671333D01*
X145966920Y-106329013D01*
X145761068Y-106020933D01*
X145499067Y-105758932D01*
X145190987Y-105553080D01*
X144848667Y-105411286D01*
X144485262Y-105339000D01*
X144401135Y-105339000D01*
X144491068Y-105249067D01*
X144696920Y-104940987D01*
X144838714Y-104598667D01*
X144911000Y-104235262D01*
X144911000Y-103864738D01*
X144838714Y-103501333D01*
X144696920Y-103159013D01*
X144491068Y-102850933D01*
X144391135Y-102751000D01*
X144485262Y-102751000D01*
X144848667Y-102678714D01*
X145190987Y-102536920D01*
X145499067Y-102331068D01*
X145761068Y-102069067D01*
X145966920Y-101760987D01*
X146108714Y-101418667D01*
X146181000Y-101055262D01*
X146181000Y-100684738D01*
X146108714Y-100321333D01*
X145966920Y-99979013D01*
X145761068Y-99670933D01*
X145499067Y-99408932D01*
X145190987Y-99203080D01*
X144848667Y-99061286D01*
X144485262Y-98989000D01*
X144401135Y-98989000D01*
X144491068Y-98899067D01*
X144696920Y-98590987D01*
X144838714Y-98248667D01*
X144911000Y-97885262D01*
X144911000Y-97514738D01*
X144838714Y-97151333D01*
X144696920Y-96809013D01*
X144491068Y-96500933D01*
X144391135Y-96401000D01*
X144485262Y-96401000D01*
X144848667Y-96328714D01*
X145190987Y-96186920D01*
X145499067Y-95981068D01*
X145761068Y-95719067D01*
X145966920Y-95410987D01*
X146108714Y-95068667D01*
X146181000Y-94705262D01*
X146181000Y-94334738D01*
X146108714Y-93971333D01*
X145966920Y-93629013D01*
X145761068Y-93320933D01*
X145499067Y-93058932D01*
X145190987Y-92853080D01*
X144848667Y-92711286D01*
X144485262Y-92639000D01*
X144114738Y-92639000D01*
X143751333Y-92711286D01*
X143409013Y-92853080D01*
X143100933Y-93058932D01*
X142838932Y-93320933D01*
X142633080Y-93629013D01*
X142491286Y-93971333D01*
X142419000Y-94334738D01*
X142419000Y-94705262D01*
X142491286Y-95068667D01*
X142633080Y-95410987D01*
X142838932Y-95719067D01*
X142938865Y-95819000D01*
X142844738Y-95819000D01*
X142481333Y-95891286D01*
X142139013Y-96033080D01*
X141830933Y-96238932D01*
X141568932Y-96500933D01*
X141406000Y-96744779D01*
X141406000Y-88448757D01*
X144324000Y-88448757D01*
X144324000Y-88691243D01*
X144371307Y-88929069D01*
X144464102Y-89153097D01*
X144598820Y-89354717D01*
X144770283Y-89526180D01*
X144971903Y-89660898D01*
X145195931Y-89753693D01*
X145433757Y-89801000D01*
X145676243Y-89801000D01*
X145914069Y-89753693D01*
X146138097Y-89660898D01*
X146339717Y-89526180D01*
X146511180Y-89354717D01*
X146645898Y-89153097D01*
X146738693Y-88929069D01*
X146786000Y-88691243D01*
X146786000Y-88448757D01*
X146738693Y-88210931D01*
X146645898Y-87986903D01*
X146511180Y-87785283D01*
X146339717Y-87613820D01*
X146138097Y-87479102D01*
X145914069Y-87386307D01*
X145676243Y-87339000D01*
X145433757Y-87339000D01*
X145195931Y-87386307D01*
X144971903Y-87479102D01*
X144770283Y-87613820D01*
X144598820Y-87785283D01*
X144464102Y-87986903D01*
X144371307Y-88210931D01*
X144324000Y-88448757D01*
X141406000Y-88448757D01*
X141406000Y-87127000D01*
X144415225Y-87127000D01*
X144686699Y-87181000D01*
%TA.AperFunction,Conductor*%
D18*
G36*
X144686699Y-87181000D02*
G01*
X145313301Y-87181000D01*
X145584775Y-87127000D01*
X147873000Y-87127000D01*
X147873000Y-87359042D01*
X147735931Y-87386307D01*
X147511903Y-87479102D01*
X147310283Y-87613820D01*
X147138820Y-87785283D01*
X147004102Y-87986903D01*
X146911307Y-88210931D01*
X146864000Y-88448757D01*
X146864000Y-88691243D01*
X146911307Y-88929069D01*
X147004102Y-89153097D01*
X147138820Y-89354717D01*
X147310283Y-89526180D01*
X147511903Y-89660898D01*
X147735931Y-89753693D01*
X147873000Y-89780958D01*
X147873000Y-107947394D01*
X144947394Y-110873000D01*
X144851776Y-110873000D01*
X144911000Y-110575262D01*
X144911000Y-110204738D01*
X144838714Y-109841333D01*
X144696920Y-109499013D01*
X144491068Y-109190933D01*
X144401135Y-109101000D01*
X144485262Y-109101000D01*
X144848667Y-109028714D01*
X145190987Y-108886920D01*
X145499067Y-108681068D01*
X145761068Y-108419067D01*
X145966920Y-108110987D01*
X146108714Y-107768667D01*
X146181000Y-107405262D01*
X146181000Y-107034738D01*
X146108714Y-106671333D01*
X145966920Y-106329013D01*
X145761068Y-106020933D01*
X145499067Y-105758932D01*
X145190987Y-105553080D01*
X144848667Y-105411286D01*
X144485262Y-105339000D01*
X144401135Y-105339000D01*
X144491068Y-105249067D01*
X144696920Y-104940987D01*
X144838714Y-104598667D01*
X144911000Y-104235262D01*
X144911000Y-103864738D01*
X144838714Y-103501333D01*
X144696920Y-103159013D01*
X144491068Y-102850933D01*
X144391135Y-102751000D01*
X144485262Y-102751000D01*
X144848667Y-102678714D01*
X145190987Y-102536920D01*
X145499067Y-102331068D01*
X145761068Y-102069067D01*
X145966920Y-101760987D01*
X146108714Y-101418667D01*
X146181000Y-101055262D01*
X146181000Y-100684738D01*
X146108714Y-100321333D01*
X145966920Y-99979013D01*
X145761068Y-99670933D01*
X145499067Y-99408932D01*
X145190987Y-99203080D01*
X144848667Y-99061286D01*
X144485262Y-98989000D01*
X144401135Y-98989000D01*
X144491068Y-98899067D01*
X144696920Y-98590987D01*
X144838714Y-98248667D01*
X144911000Y-97885262D01*
X144911000Y-97514738D01*
X144838714Y-97151333D01*
X144696920Y-96809013D01*
X144491068Y-96500933D01*
X144391135Y-96401000D01*
X144485262Y-96401000D01*
X144848667Y-96328714D01*
X145190987Y-96186920D01*
X145499067Y-95981068D01*
X145761068Y-95719067D01*
X145966920Y-95410987D01*
X146108714Y-95068667D01*
X146181000Y-94705262D01*
X146181000Y-94334738D01*
X146108714Y-93971333D01*
X145966920Y-93629013D01*
X145761068Y-93320933D01*
X145499067Y-93058932D01*
X145190987Y-92853080D01*
X144848667Y-92711286D01*
X144485262Y-92639000D01*
X144114738Y-92639000D01*
X143751333Y-92711286D01*
X143409013Y-92853080D01*
X143100933Y-93058932D01*
X142838932Y-93320933D01*
X142633080Y-93629013D01*
X142491286Y-93971333D01*
X142419000Y-94334738D01*
X142419000Y-94705262D01*
X142491286Y-95068667D01*
X142633080Y-95410987D01*
X142838932Y-95719067D01*
X142938865Y-95819000D01*
X142844738Y-95819000D01*
X142481333Y-95891286D01*
X142139013Y-96033080D01*
X141830933Y-96238932D01*
X141568932Y-96500933D01*
X141406000Y-96744779D01*
X141406000Y-88448757D01*
X144324000Y-88448757D01*
X144324000Y-88691243D01*
X144371307Y-88929069D01*
X144464102Y-89153097D01*
X144598820Y-89354717D01*
X144770283Y-89526180D01*
X144971903Y-89660898D01*
X145195931Y-89753693D01*
X145433757Y-89801000D01*
X145676243Y-89801000D01*
X145914069Y-89753693D01*
X146138097Y-89660898D01*
X146339717Y-89526180D01*
X146511180Y-89354717D01*
X146645898Y-89153097D01*
X146738693Y-88929069D01*
X146786000Y-88691243D01*
X146786000Y-88448757D01*
X146738693Y-88210931D01*
X146645898Y-87986903D01*
X146511180Y-87785283D01*
X146339717Y-87613820D01*
X146138097Y-87479102D01*
X145914069Y-87386307D01*
X145676243Y-87339000D01*
X145433757Y-87339000D01*
X145195931Y-87386307D01*
X144971903Y-87479102D01*
X144770283Y-87613820D01*
X144598820Y-87785283D01*
X144464102Y-87986903D01*
X144371307Y-88210931D01*
X144324000Y-88448757D01*
X141406000Y-88448757D01*
X141406000Y-87127000D01*
X144415225Y-87127000D01*
X144686699Y-87181000D01*
G37*
%TD.AperFunction*%
%TD*%
D17*
%TO.N,/GND1*%
X154686699Y-87181000D02*
X155313301Y-87181000D01*
X155584775Y-87127000D01*
X158594001Y-87127000D01*
X158594001Y-93519881D01*
X158461068Y-93320933D01*
X158199067Y-93058932D01*
X157890987Y-92853080D01*
X157548667Y-92711286D01*
X157185262Y-92639000D01*
X156814738Y-92639000D01*
X156451333Y-92711286D01*
X156109013Y-92853080D01*
X155800933Y-93058932D01*
X155538932Y-93320933D01*
X155333080Y-93629013D01*
X155191286Y-93971333D01*
X155119000Y-94334738D01*
X155119000Y-94705262D01*
X155191286Y-95068667D01*
X155333080Y-95410987D01*
X155538932Y-95719067D01*
X155638865Y-95819000D01*
X155544738Y-95819000D01*
X155181333Y-95891286D01*
X154839013Y-96033080D01*
X154530933Y-96238932D01*
X154268932Y-96500933D01*
X154063080Y-96809013D01*
X153921286Y-97151333D01*
X153849000Y-97514738D01*
X153849000Y-97885262D01*
X153921286Y-98248667D01*
X154063080Y-98590987D01*
X154268932Y-98899067D01*
X154530933Y-99161068D01*
X154839013Y-99366920D01*
X155181333Y-99508714D01*
X155544738Y-99581000D01*
X155628865Y-99581000D01*
X155538932Y-99670933D01*
X155333080Y-99979013D01*
X155204679Y-100289000D01*
X154110659Y-100289000D01*
X153581000Y-99759343D01*
X153581000Y-94240657D01*
X157375645Y-90446013D01*
X157397817Y-90427817D01*
X157470421Y-90339348D01*
X157524371Y-90238415D01*
X157557593Y-90128896D01*
X157566000Y-90043540D01*
X157568811Y-90015001D01*
X157566000Y-89986461D01*
X157566000Y-89661767D01*
X157568097Y-89660898D01*
X157769717Y-89526180D01*
X157941180Y-89354717D01*
X158075898Y-89153097D01*
X158168693Y-88929069D01*
X158216000Y-88691243D01*
X158216000Y-88448757D01*
X158168693Y-88210931D01*
X158075898Y-87986903D01*
X157941180Y-87785283D01*
X157769717Y-87613820D01*
X157568097Y-87479102D01*
X157344069Y-87386307D01*
X157106243Y-87339000D01*
X156863757Y-87339000D01*
X156625931Y-87386307D01*
X156401903Y-87479102D01*
X156200283Y-87613820D01*
X156028820Y-87785283D01*
X155894102Y-87986903D01*
X155801307Y-88210931D01*
X155754000Y-88448757D01*
X155754000Y-88691243D01*
X155801307Y-88929069D01*
X155894102Y-89153097D01*
X156028820Y-89354717D01*
X156200283Y-89526180D01*
X156401903Y-89660898D01*
X156404001Y-89661767D01*
X156404001Y-89774341D01*
X152609356Y-93568987D01*
X152587184Y-93587183D01*
X152529612Y-93657335D01*
X152514579Y-93675653D01*
X152460629Y-93776586D01*
X152427407Y-93886105D01*
X152416189Y-94000000D01*
X152419001Y-94028550D01*
X152419000Y-99971460D01*
X152416189Y-100000000D01*
X152419000Y-100028539D01*
X152427407Y-100113895D01*
X152460629Y-100223414D01*
X152514579Y-100324347D01*
X152587183Y-100412817D01*
X152609360Y-100431017D01*
X153438992Y-101260650D01*
X153457183Y-101282817D01*
X153479349Y-101301008D01*
X153479351Y-101301010D01*
X153545652Y-101355421D01*
X153646585Y-101409371D01*
X153756104Y-101442593D01*
X153870000Y-101453811D01*
X153898540Y-101451000D01*
X155204679Y-101451000D01*
X155333080Y-101760987D01*
X155538932Y-102069067D01*
X155638865Y-102169000D01*
X155544738Y-102169000D01*
X155181333Y-102241286D01*
X154839013Y-102383080D01*
X154530933Y-102588932D01*
X154268932Y-102850933D01*
X154063080Y-103159013D01*
X153921286Y-103501333D01*
X153849000Y-103864738D01*
X153849000Y-104235262D01*
X153921286Y-104598667D01*
X154063080Y-104940987D01*
X154268932Y-105249067D01*
X154530933Y-105511068D01*
X154839013Y-105716920D01*
X155181333Y-105858714D01*
X155544738Y-105931000D01*
X155915262Y-105931000D01*
X156278667Y-105858714D01*
X156620987Y-105716920D01*
X156929067Y-105511068D01*
X157191068Y-105249067D01*
X157396920Y-104940987D01*
X157538714Y-104598667D01*
X157611000Y-104235262D01*
X157611000Y-103864738D01*
X157538714Y-103501333D01*
X157396920Y-103159013D01*
X157191068Y-102850933D01*
X157091135Y-102751000D01*
X157185262Y-102751000D01*
X157548667Y-102678714D01*
X157890987Y-102536920D01*
X158199067Y-102331068D01*
X158461068Y-102069067D01*
X158594000Y-101870119D01*
X158594000Y-110873000D01*
X157551776Y-110873000D01*
X157611000Y-110575262D01*
X157611000Y-110204738D01*
X157538714Y-109841333D01*
X157396920Y-109499013D01*
X157191068Y-109190933D01*
X156929067Y-108928932D01*
X156620987Y-108723080D01*
X156278667Y-108581286D01*
X155915262Y-108509000D01*
X155544738Y-108509000D01*
X155181333Y-108581286D01*
X154839013Y-108723080D01*
X154530933Y-108928932D01*
X154268932Y-109190933D01*
X154063080Y-109499013D01*
X153921286Y-109841333D01*
X153849000Y-110204738D01*
X153849000Y-110575262D01*
X153872373Y-110692767D01*
X151127000Y-107947394D01*
X151127000Y-88448757D01*
X153214000Y-88448757D01*
X153214000Y-88691243D01*
X153261307Y-88929069D01*
X153354102Y-89153097D01*
X153488820Y-89354717D01*
X153660283Y-89526180D01*
X153861903Y-89660898D01*
X154085931Y-89753693D01*
X154323757Y-89801000D01*
X154566243Y-89801000D01*
X154804069Y-89753693D01*
X155028097Y-89660898D01*
X155229717Y-89526180D01*
X155401180Y-89354717D01*
X155535898Y-89153097D01*
X155628693Y-88929069D01*
X155676000Y-88691243D01*
X155676000Y-88448757D01*
X155628693Y-88210931D01*
X155535898Y-87986903D01*
X155401180Y-87785283D01*
X155229717Y-87613820D01*
X155028097Y-87479102D01*
X154804069Y-87386307D01*
X154566243Y-87339000D01*
X154323757Y-87339000D01*
X154085931Y-87386307D01*
X153861903Y-87479102D01*
X153660283Y-87613820D01*
X153488820Y-87785283D01*
X153354102Y-87986903D01*
X153261307Y-88210931D01*
X153214000Y-88448757D01*
X151127000Y-88448757D01*
X151127000Y-87127000D01*
X154415225Y-87127000D01*
X154686699Y-87181000D01*
%TA.AperFunction,Conductor*%
D18*
G36*
X154686699Y-87181000D02*
G01*
X155313301Y-87181000D01*
X155584775Y-87127000D01*
X158594001Y-87127000D01*
X158594001Y-93519881D01*
X158461068Y-93320933D01*
X158199067Y-93058932D01*
X157890987Y-92853080D01*
X157548667Y-92711286D01*
X157185262Y-92639000D01*
X156814738Y-92639000D01*
X156451333Y-92711286D01*
X156109013Y-92853080D01*
X155800933Y-93058932D01*
X155538932Y-93320933D01*
X155333080Y-93629013D01*
X155191286Y-93971333D01*
X155119000Y-94334738D01*
X155119000Y-94705262D01*
X155191286Y-95068667D01*
X155333080Y-95410987D01*
X155538932Y-95719067D01*
X155638865Y-95819000D01*
X155544738Y-95819000D01*
X155181333Y-95891286D01*
X154839013Y-96033080D01*
X154530933Y-96238932D01*
X154268932Y-96500933D01*
X154063080Y-96809013D01*
X153921286Y-97151333D01*
X153849000Y-97514738D01*
X153849000Y-97885262D01*
X153921286Y-98248667D01*
X154063080Y-98590987D01*
X154268932Y-98899067D01*
X154530933Y-99161068D01*
X154839013Y-99366920D01*
X155181333Y-99508714D01*
X155544738Y-99581000D01*
X155628865Y-99581000D01*
X155538932Y-99670933D01*
X155333080Y-99979013D01*
X155204679Y-100289000D01*
X154110659Y-100289000D01*
X153581000Y-99759343D01*
X153581000Y-94240657D01*
X157375645Y-90446013D01*
X157397817Y-90427817D01*
X157470421Y-90339348D01*
X157524371Y-90238415D01*
X157557593Y-90128896D01*
X157566000Y-90043540D01*
X157568811Y-90015001D01*
X157566000Y-89986461D01*
X157566000Y-89661767D01*
X157568097Y-89660898D01*
X157769717Y-89526180D01*
X157941180Y-89354717D01*
X158075898Y-89153097D01*
X158168693Y-88929069D01*
X158216000Y-88691243D01*
X158216000Y-88448757D01*
X158168693Y-88210931D01*
X158075898Y-87986903D01*
X157941180Y-87785283D01*
X157769717Y-87613820D01*
X157568097Y-87479102D01*
X157344069Y-87386307D01*
X157106243Y-87339000D01*
X156863757Y-87339000D01*
X156625931Y-87386307D01*
X156401903Y-87479102D01*
X156200283Y-87613820D01*
X156028820Y-87785283D01*
X155894102Y-87986903D01*
X155801307Y-88210931D01*
X155754000Y-88448757D01*
X155754000Y-88691243D01*
X155801307Y-88929069D01*
X155894102Y-89153097D01*
X156028820Y-89354717D01*
X156200283Y-89526180D01*
X156401903Y-89660898D01*
X156404001Y-89661767D01*
X156404001Y-89774341D01*
X152609356Y-93568987D01*
X152587184Y-93587183D01*
X152529612Y-93657335D01*
X152514579Y-93675653D01*
X152460629Y-93776586D01*
X152427407Y-93886105D01*
X152416189Y-94000000D01*
X152419001Y-94028550D01*
X152419000Y-99971460D01*
X152416189Y-100000000D01*
X152419000Y-100028539D01*
X152427407Y-100113895D01*
X152460629Y-100223414D01*
X152514579Y-100324347D01*
X152587183Y-100412817D01*
X152609360Y-100431017D01*
X153438992Y-101260650D01*
X153457183Y-101282817D01*
X153479349Y-101301008D01*
X153479351Y-101301010D01*
X153545652Y-101355421D01*
X153646585Y-101409371D01*
X153756104Y-101442593D01*
X153870000Y-101453811D01*
X153898540Y-101451000D01*
X155204679Y-101451000D01*
X155333080Y-101760987D01*
X155538932Y-102069067D01*
X155638865Y-102169000D01*
X155544738Y-102169000D01*
X155181333Y-102241286D01*
X154839013Y-102383080D01*
X154530933Y-102588932D01*
X154268932Y-102850933D01*
X154063080Y-103159013D01*
X153921286Y-103501333D01*
X153849000Y-103864738D01*
X153849000Y-104235262D01*
X153921286Y-104598667D01*
X154063080Y-104940987D01*
X154268932Y-105249067D01*
X154530933Y-105511068D01*
X154839013Y-105716920D01*
X155181333Y-105858714D01*
X155544738Y-105931000D01*
X155915262Y-105931000D01*
X156278667Y-105858714D01*
X156620987Y-105716920D01*
X156929067Y-105511068D01*
X157191068Y-105249067D01*
X157396920Y-104940987D01*
X157538714Y-104598667D01*
X157611000Y-104235262D01*
X157611000Y-103864738D01*
X157538714Y-103501333D01*
X157396920Y-103159013D01*
X157191068Y-102850933D01*
X157091135Y-102751000D01*
X157185262Y-102751000D01*
X157548667Y-102678714D01*
X157890987Y-102536920D01*
X158199067Y-102331068D01*
X158461068Y-102069067D01*
X158594000Y-101870119D01*
X158594000Y-110873000D01*
X157551776Y-110873000D01*
X157611000Y-110575262D01*
X157611000Y-110204738D01*
X157538714Y-109841333D01*
X157396920Y-109499013D01*
X157191068Y-109190933D01*
X156929067Y-108928932D01*
X156620987Y-108723080D01*
X156278667Y-108581286D01*
X155915262Y-108509000D01*
X155544738Y-108509000D01*
X155181333Y-108581286D01*
X154839013Y-108723080D01*
X154530933Y-108928932D01*
X154268932Y-109190933D01*
X154063080Y-109499013D01*
X153921286Y-109841333D01*
X153849000Y-110204738D01*
X153849000Y-110575262D01*
X153872373Y-110692767D01*
X151127000Y-107947394D01*
X151127000Y-88448757D01*
X153214000Y-88448757D01*
X153214000Y-88691243D01*
X153261307Y-88929069D01*
X153354102Y-89153097D01*
X153488820Y-89354717D01*
X153660283Y-89526180D01*
X153861903Y-89660898D01*
X154085931Y-89753693D01*
X154323757Y-89801000D01*
X154566243Y-89801000D01*
X154804069Y-89753693D01*
X155028097Y-89660898D01*
X155229717Y-89526180D01*
X155401180Y-89354717D01*
X155535898Y-89153097D01*
X155628693Y-88929069D01*
X155676000Y-88691243D01*
X155676000Y-88448757D01*
X155628693Y-88210931D01*
X155535898Y-87986903D01*
X155401180Y-87785283D01*
X155229717Y-87613820D01*
X155028097Y-87479102D01*
X154804069Y-87386307D01*
X154566243Y-87339000D01*
X154323757Y-87339000D01*
X154085931Y-87386307D01*
X153861903Y-87479102D01*
X153660283Y-87613820D01*
X153488820Y-87785283D01*
X153354102Y-87986903D01*
X153261307Y-88210931D01*
X153214000Y-88448757D01*
X151127000Y-88448757D01*
X151127000Y-87127000D01*
X154415225Y-87127000D01*
X154686699Y-87181000D01*
G37*
%TD.AperFunction*%
%TD*%
M02*
