%TF.GenerationSoftware,KiCad,Pcbnew,(5.1.9-0-10_14)*%
%TF.CreationDate,2021-03-07T16:19:06+01:00*%
%TF.ProjectId,Klinke Dual,4b6c696e-6b65-4204-9475-616c2e6b6963,rev?*%
%TF.SameCoordinates,Original*%
%TF.FileFunction,Copper,L2,Bot*%
%TF.FilePolarity,Positive*%
%FSLAX46Y46*%
G04 Gerber Fmt 4.6, Leading zero omitted, Abs format (unit mm)*
G04 Created by KiCad (PCBNEW (5.1.9-0-10_14)) date 2021-03-07 16:19:06*
%MOMM*%
%LPD*%
G01*
G04 APERTURE LIST*
%TA.AperFunction,ComponentPad*%
%ADD10C,5.600000*%
%TD*%
%TA.AperFunction,ComponentPad*%
%ADD11O,1.700000X1.700000*%
%TD*%
%TA.AperFunction,ComponentPad*%
%ADD12R,1.700000X1.700000*%
%TD*%
%TA.AperFunction,ComponentPad*%
%ADD13C,3.000000*%
%TD*%
%TA.AperFunction,ComponentPad*%
%ADD14C,2.900000*%
%TD*%
%TA.AperFunction,Conductor*%
%ADD15C,0.254000*%
%TD*%
%TA.AperFunction,Conductor*%
%ADD16C,0.100000*%
%TD*%
G04 APERTURE END LIST*
D10*
%TO.P,H1,1*%
%TO.N,Earth*%
X139000000Y-89000000D03*
%TD*%
%TO.P,H2,1*%
%TO.N,Earth*%
X161000000Y-89000000D03*
%TD*%
%TO.P,H3,1*%
%TO.N,Earth*%
X139000000Y-111000000D03*
%TD*%
%TO.P,H4,1*%
%TO.N,Earth*%
X161000000Y-111000000D03*
%TD*%
D11*
%TO.P,J3,3*%
%TO.N,/RIGHT2*%
X162000000Y-102540000D03*
%TO.P,J3,2*%
%TO.N,/LEFT2*%
X162000000Y-100000000D03*
D12*
%TO.P,J3,1*%
%TO.N,/GND2*%
X162000000Y-97460000D03*
%TD*%
D11*
%TO.P,J2,3*%
%TO.N,/RIGHT1*%
X138000000Y-102540000D03*
%TO.P,J2,2*%
%TO.N,/LEFT1*%
X138000000Y-100000000D03*
D12*
%TO.P,J2,1*%
%TO.N,/GND1*%
X138000000Y-97460000D03*
%TD*%
D13*
%TO.P,J1,RN2*%
%TO.N,Net-(J1-PadRN2)*%
X143530000Y-104050000D03*
%TO.P,J1,RN1*%
%TO.N,Net-(J1-PadRN1)*%
X144800000Y-100870000D03*
%TO.P,J1,R2*%
%TO.N,/RIGHT2*%
X156230000Y-104050000D03*
%TO.P,J1,R1*%
%TO.N,/RIGHT1*%
X157500000Y-100870000D03*
%TO.P,J1,SN2*%
%TO.N,Net-(J1-PadSN2)*%
X143530000Y-110390000D03*
%TO.P,J1,SN1*%
%TO.N,Net-(J1-PadSN1)*%
X144800000Y-107220000D03*
%TO.P,J1,TN2*%
%TO.N,Net-(J1-PadTN2)*%
X143530000Y-97700000D03*
%TO.P,J1,TN1*%
%TO.N,Net-(J1-PadTN1)*%
X144800000Y-94520000D03*
%TO.P,J1,S2*%
%TO.N,/GND2*%
X156230000Y-110390000D03*
%TO.P,J1,S1*%
%TO.N,/GND1*%
X157500000Y-107220000D03*
%TO.P,J1,T2*%
%TO.N,/LEFT2*%
X156230000Y-97700000D03*
%TO.P,J1,T1*%
%TO.N,/LEFT1*%
X157500000Y-94520000D03*
D14*
%TO.P,J1,G*%
%TO.N,Earth*%
X154960000Y-113270000D03*
%TD*%
D15*
%TO.N,Earth*%
X164065424Y-85669580D02*
X164128356Y-85688580D01*
X164186405Y-85719445D01*
X164237343Y-85760989D01*
X164279248Y-85811644D01*
X164310515Y-85869471D01*
X164329956Y-85932272D01*
X164340001Y-86027845D01*
X164340000Y-113967721D01*
X164330420Y-114065424D01*
X164311420Y-114128357D01*
X164280554Y-114186406D01*
X164239011Y-114237343D01*
X164188356Y-114279248D01*
X164130529Y-114310515D01*
X164067728Y-114329956D01*
X163972165Y-114340000D01*
X136032279Y-114340000D01*
X135934576Y-114330420D01*
X135871643Y-114311420D01*
X135813594Y-114280554D01*
X135762657Y-114239011D01*
X135720752Y-114188356D01*
X135689485Y-114130529D01*
X135670044Y-114067728D01*
X135660000Y-113972165D01*
X135660000Y-96610000D01*
X136511928Y-96610000D01*
X136511928Y-98310000D01*
X136524188Y-98434482D01*
X136560498Y-98554180D01*
X136619463Y-98664494D01*
X136698815Y-98761185D01*
X136795506Y-98840537D01*
X136905820Y-98899502D01*
X136978380Y-98921513D01*
X136846525Y-99053368D01*
X136684010Y-99296589D01*
X136572068Y-99566842D01*
X136515000Y-99853740D01*
X136515000Y-100146260D01*
X136572068Y-100433158D01*
X136684010Y-100703411D01*
X136846525Y-100946632D01*
X137053368Y-101153475D01*
X137227760Y-101270000D01*
X137053368Y-101386525D01*
X136846525Y-101593368D01*
X136684010Y-101836589D01*
X136572068Y-102106842D01*
X136515000Y-102393740D01*
X136515000Y-102686260D01*
X136572068Y-102973158D01*
X136684010Y-103243411D01*
X136846525Y-103486632D01*
X137053368Y-103693475D01*
X137296589Y-103855990D01*
X137566842Y-103967932D01*
X137853740Y-104025000D01*
X138146260Y-104025000D01*
X138433158Y-103967932D01*
X138703411Y-103855990D01*
X138946632Y-103693475D01*
X139153475Y-103486632D01*
X139315990Y-103243411D01*
X139427932Y-102973158D01*
X139485000Y-102686260D01*
X139485000Y-102393740D01*
X139427932Y-102106842D01*
X139315990Y-101836589D01*
X139153475Y-101593368D01*
X138946632Y-101386525D01*
X138772240Y-101270000D01*
X138946632Y-101153475D01*
X139153475Y-100946632D01*
X139315990Y-100703411D01*
X139427932Y-100433158D01*
X139485000Y-100146260D01*
X139485000Y-99853740D01*
X139427932Y-99566842D01*
X139315990Y-99296589D01*
X139153475Y-99053368D01*
X139021620Y-98921513D01*
X139094180Y-98899502D01*
X139204494Y-98840537D01*
X139301185Y-98761185D01*
X139380537Y-98664494D01*
X139439502Y-98554180D01*
X139475812Y-98434482D01*
X139488072Y-98310000D01*
X139488072Y-97489721D01*
X141395000Y-97489721D01*
X141395000Y-97910279D01*
X141477047Y-98322756D01*
X141637988Y-98711302D01*
X141871637Y-99060983D01*
X142169017Y-99358363D01*
X142518698Y-99592012D01*
X142907244Y-99752953D01*
X142970268Y-99765489D01*
X142907988Y-99858698D01*
X142747047Y-100247244D01*
X142665000Y-100659721D01*
X142665000Y-101080279D01*
X142747047Y-101492756D01*
X142907988Y-101881302D01*
X142976166Y-101983338D01*
X142907244Y-101997047D01*
X142518698Y-102157988D01*
X142169017Y-102391637D01*
X141871637Y-102689017D01*
X141637988Y-103038698D01*
X141477047Y-103427244D01*
X141395000Y-103839721D01*
X141395000Y-104260279D01*
X141477047Y-104672756D01*
X141637988Y-105061302D01*
X141871637Y-105410983D01*
X142169017Y-105708363D01*
X142518698Y-105942012D01*
X142907244Y-106102953D01*
X142970268Y-106115489D01*
X142907988Y-106208698D01*
X142747047Y-106597244D01*
X142665000Y-107009721D01*
X142665000Y-107430279D01*
X142747047Y-107842756D01*
X142907988Y-108231302D01*
X142970268Y-108324511D01*
X142907244Y-108337047D01*
X142518698Y-108497988D01*
X142169017Y-108731637D01*
X141871637Y-109029017D01*
X141637988Y-109378698D01*
X141477047Y-109767244D01*
X141395000Y-110179721D01*
X141395000Y-110600279D01*
X141477047Y-111012756D01*
X141637988Y-111401302D01*
X141871637Y-111750983D01*
X142169017Y-112048363D01*
X142518698Y-112282012D01*
X142907244Y-112442953D01*
X143319721Y-112525000D01*
X143740279Y-112525000D01*
X144152756Y-112442953D01*
X144541302Y-112282012D01*
X144890983Y-112048363D01*
X145188363Y-111750983D01*
X145422012Y-111401302D01*
X145582953Y-111012756D01*
X145665000Y-110600279D01*
X145665000Y-110179721D01*
X145582953Y-109767244D01*
X145422012Y-109378698D01*
X145359732Y-109285489D01*
X145422756Y-109272953D01*
X145811302Y-109112012D01*
X146160983Y-108878363D01*
X146458363Y-108580983D01*
X146692012Y-108231302D01*
X146852953Y-107842756D01*
X146935000Y-107430279D01*
X146935000Y-107009721D01*
X146852953Y-106597244D01*
X146692012Y-106208698D01*
X146458363Y-105859017D01*
X146160983Y-105561637D01*
X145811302Y-105327988D01*
X145422756Y-105167047D01*
X145359732Y-105154511D01*
X145422012Y-105061302D01*
X145582953Y-104672756D01*
X145665000Y-104260279D01*
X145665000Y-103839721D01*
X145582953Y-103427244D01*
X145422012Y-103038698D01*
X145353834Y-102936662D01*
X145422756Y-102922953D01*
X145811302Y-102762012D01*
X146160983Y-102528363D01*
X146458363Y-102230983D01*
X146692012Y-101881302D01*
X146852953Y-101492756D01*
X146935000Y-101080279D01*
X146935000Y-100659721D01*
X146852953Y-100247244D01*
X146692012Y-99858698D01*
X146458363Y-99509017D01*
X146160983Y-99211637D01*
X145811302Y-98977988D01*
X145422756Y-98817047D01*
X145359732Y-98804511D01*
X145422012Y-98711302D01*
X145582953Y-98322756D01*
X145665000Y-97910279D01*
X145665000Y-97489721D01*
X154095000Y-97489721D01*
X154095000Y-97910279D01*
X154177047Y-98322756D01*
X154337988Y-98711302D01*
X154571637Y-99060983D01*
X154869017Y-99358363D01*
X155218698Y-99592012D01*
X155607244Y-99752953D01*
X155670268Y-99765489D01*
X155607988Y-99858698D01*
X155447047Y-100247244D01*
X155365000Y-100659721D01*
X155365000Y-101080279D01*
X155447047Y-101492756D01*
X155607988Y-101881302D01*
X155676166Y-101983338D01*
X155607244Y-101997047D01*
X155218698Y-102157988D01*
X154869017Y-102391637D01*
X154571637Y-102689017D01*
X154337988Y-103038698D01*
X154177047Y-103427244D01*
X154095000Y-103839721D01*
X154095000Y-104260279D01*
X154177047Y-104672756D01*
X154337988Y-105061302D01*
X154571637Y-105410983D01*
X154869017Y-105708363D01*
X155218698Y-105942012D01*
X155607244Y-106102953D01*
X155670268Y-106115489D01*
X155607988Y-106208698D01*
X155447047Y-106597244D01*
X155365000Y-107009721D01*
X155365000Y-107430279D01*
X155447047Y-107842756D01*
X155607988Y-108231302D01*
X155670268Y-108324511D01*
X155607244Y-108337047D01*
X155218698Y-108497988D01*
X154869017Y-108731637D01*
X154571637Y-109029017D01*
X154337988Y-109378698D01*
X154177047Y-109767244D01*
X154095000Y-110179721D01*
X154095000Y-110600279D01*
X154177047Y-111012756D01*
X154337988Y-111401302D01*
X154571637Y-111750983D01*
X154869017Y-112048363D01*
X155218698Y-112282012D01*
X155607244Y-112442953D01*
X156019721Y-112525000D01*
X156440279Y-112525000D01*
X156852756Y-112442953D01*
X157241302Y-112282012D01*
X157590983Y-112048363D01*
X157888363Y-111750983D01*
X158122012Y-111401302D01*
X158282953Y-111012756D01*
X158365000Y-110600279D01*
X158365000Y-110179721D01*
X158282953Y-109767244D01*
X158122012Y-109378698D01*
X158059732Y-109285489D01*
X158122756Y-109272953D01*
X158511302Y-109112012D01*
X158860983Y-108878363D01*
X159158363Y-108580983D01*
X159392012Y-108231302D01*
X159552953Y-107842756D01*
X159635000Y-107430279D01*
X159635000Y-107009721D01*
X159552953Y-106597244D01*
X159392012Y-106208698D01*
X159158363Y-105859017D01*
X158860983Y-105561637D01*
X158511302Y-105327988D01*
X158122756Y-105167047D01*
X158059732Y-105154511D01*
X158122012Y-105061302D01*
X158282953Y-104672756D01*
X158365000Y-104260279D01*
X158365000Y-103839721D01*
X158282953Y-103427244D01*
X158122012Y-103038698D01*
X158053834Y-102936662D01*
X158122756Y-102922953D01*
X158511302Y-102762012D01*
X158860983Y-102528363D01*
X159158363Y-102230983D01*
X159392012Y-101881302D01*
X159552953Y-101492756D01*
X159635000Y-101080279D01*
X159635000Y-100659721D01*
X159552953Y-100247244D01*
X159392012Y-99858698D01*
X159158363Y-99509017D01*
X158860983Y-99211637D01*
X158511302Y-98977988D01*
X158122756Y-98817047D01*
X158059732Y-98804511D01*
X158122012Y-98711302D01*
X158282953Y-98322756D01*
X158365000Y-97910279D01*
X158365000Y-97489721D01*
X158282953Y-97077244D01*
X158122012Y-96688698D01*
X158069428Y-96610000D01*
X160511928Y-96610000D01*
X160511928Y-98310000D01*
X160524188Y-98434482D01*
X160560498Y-98554180D01*
X160619463Y-98664494D01*
X160698815Y-98761185D01*
X160795506Y-98840537D01*
X160905820Y-98899502D01*
X160978380Y-98921513D01*
X160846525Y-99053368D01*
X160684010Y-99296589D01*
X160572068Y-99566842D01*
X160515000Y-99853740D01*
X160515000Y-100146260D01*
X160572068Y-100433158D01*
X160684010Y-100703411D01*
X160846525Y-100946632D01*
X161053368Y-101153475D01*
X161227760Y-101270000D01*
X161053368Y-101386525D01*
X160846525Y-101593368D01*
X160684010Y-101836589D01*
X160572068Y-102106842D01*
X160515000Y-102393740D01*
X160515000Y-102686260D01*
X160572068Y-102973158D01*
X160684010Y-103243411D01*
X160846525Y-103486632D01*
X161053368Y-103693475D01*
X161296589Y-103855990D01*
X161566842Y-103967932D01*
X161853740Y-104025000D01*
X162146260Y-104025000D01*
X162433158Y-103967932D01*
X162703411Y-103855990D01*
X162946632Y-103693475D01*
X163153475Y-103486632D01*
X163315990Y-103243411D01*
X163427932Y-102973158D01*
X163485000Y-102686260D01*
X163485000Y-102393740D01*
X163427932Y-102106842D01*
X163315990Y-101836589D01*
X163153475Y-101593368D01*
X162946632Y-101386525D01*
X162772240Y-101270000D01*
X162946632Y-101153475D01*
X163153475Y-100946632D01*
X163315990Y-100703411D01*
X163427932Y-100433158D01*
X163485000Y-100146260D01*
X163485000Y-99853740D01*
X163427932Y-99566842D01*
X163315990Y-99296589D01*
X163153475Y-99053368D01*
X163021620Y-98921513D01*
X163094180Y-98899502D01*
X163204494Y-98840537D01*
X163301185Y-98761185D01*
X163380537Y-98664494D01*
X163439502Y-98554180D01*
X163475812Y-98434482D01*
X163488072Y-98310000D01*
X163488072Y-96610000D01*
X163475812Y-96485518D01*
X163439502Y-96365820D01*
X163380537Y-96255506D01*
X163301185Y-96158815D01*
X163204494Y-96079463D01*
X163094180Y-96020498D01*
X162974482Y-95984188D01*
X162850000Y-95971928D01*
X161150000Y-95971928D01*
X161025518Y-95984188D01*
X160905820Y-96020498D01*
X160795506Y-96079463D01*
X160698815Y-96158815D01*
X160619463Y-96255506D01*
X160560498Y-96365820D01*
X160524188Y-96485518D01*
X160511928Y-96610000D01*
X158069428Y-96610000D01*
X158053834Y-96586662D01*
X158122756Y-96572953D01*
X158511302Y-96412012D01*
X158860983Y-96178363D01*
X159158363Y-95880983D01*
X159392012Y-95531302D01*
X159552953Y-95142756D01*
X159635000Y-94730279D01*
X159635000Y-94309721D01*
X159552953Y-93897244D01*
X159392012Y-93508698D01*
X159158363Y-93159017D01*
X158860983Y-92861637D01*
X158511302Y-92627988D01*
X158122756Y-92467047D01*
X157710279Y-92385000D01*
X157289721Y-92385000D01*
X156877244Y-92467047D01*
X156488698Y-92627988D01*
X156139017Y-92861637D01*
X155841637Y-93159017D01*
X155607988Y-93508698D01*
X155447047Y-93897244D01*
X155365000Y-94309721D01*
X155365000Y-94730279D01*
X155447047Y-95142756D01*
X155607988Y-95531302D01*
X155676166Y-95633338D01*
X155607244Y-95647047D01*
X155218698Y-95807988D01*
X154869017Y-96041637D01*
X154571637Y-96339017D01*
X154337988Y-96688698D01*
X154177047Y-97077244D01*
X154095000Y-97489721D01*
X145665000Y-97489721D01*
X145582953Y-97077244D01*
X145422012Y-96688698D01*
X145353834Y-96586662D01*
X145422756Y-96572953D01*
X145811302Y-96412012D01*
X146160983Y-96178363D01*
X146458363Y-95880983D01*
X146692012Y-95531302D01*
X146852953Y-95142756D01*
X146935000Y-94730279D01*
X146935000Y-94309721D01*
X146852953Y-93897244D01*
X146692012Y-93508698D01*
X146458363Y-93159017D01*
X146160983Y-92861637D01*
X145811302Y-92627988D01*
X145422756Y-92467047D01*
X145010279Y-92385000D01*
X144589721Y-92385000D01*
X144177244Y-92467047D01*
X143788698Y-92627988D01*
X143439017Y-92861637D01*
X143141637Y-93159017D01*
X142907988Y-93508698D01*
X142747047Y-93897244D01*
X142665000Y-94309721D01*
X142665000Y-94730279D01*
X142747047Y-95142756D01*
X142907988Y-95531302D01*
X142976166Y-95633338D01*
X142907244Y-95647047D01*
X142518698Y-95807988D01*
X142169017Y-96041637D01*
X141871637Y-96339017D01*
X141637988Y-96688698D01*
X141477047Y-97077244D01*
X141395000Y-97489721D01*
X139488072Y-97489721D01*
X139488072Y-96610000D01*
X139475812Y-96485518D01*
X139439502Y-96365820D01*
X139380537Y-96255506D01*
X139301185Y-96158815D01*
X139204494Y-96079463D01*
X139094180Y-96020498D01*
X138974482Y-95984188D01*
X138850000Y-95971928D01*
X137150000Y-95971928D01*
X137025518Y-95984188D01*
X136905820Y-96020498D01*
X136795506Y-96079463D01*
X136698815Y-96158815D01*
X136619463Y-96255506D01*
X136560498Y-96365820D01*
X136524188Y-96485518D01*
X136511928Y-96610000D01*
X135660000Y-96610000D01*
X135660000Y-86032279D01*
X135669580Y-85934576D01*
X135688580Y-85871644D01*
X135719445Y-85813595D01*
X135760989Y-85762657D01*
X135811644Y-85720752D01*
X135869471Y-85689485D01*
X135932272Y-85670044D01*
X136027835Y-85660000D01*
X163967721Y-85660000D01*
X164065424Y-85669580D01*
%TA.AperFunction,Conductor*%
D16*
G36*
X164065424Y-85669580D02*
G01*
X164128356Y-85688580D01*
X164186405Y-85719445D01*
X164237343Y-85760989D01*
X164279248Y-85811644D01*
X164310515Y-85869471D01*
X164329956Y-85932272D01*
X164340001Y-86027845D01*
X164340000Y-113967721D01*
X164330420Y-114065424D01*
X164311420Y-114128357D01*
X164280554Y-114186406D01*
X164239011Y-114237343D01*
X164188356Y-114279248D01*
X164130529Y-114310515D01*
X164067728Y-114329956D01*
X163972165Y-114340000D01*
X136032279Y-114340000D01*
X135934576Y-114330420D01*
X135871643Y-114311420D01*
X135813594Y-114280554D01*
X135762657Y-114239011D01*
X135720752Y-114188356D01*
X135689485Y-114130529D01*
X135670044Y-114067728D01*
X135660000Y-113972165D01*
X135660000Y-96610000D01*
X136511928Y-96610000D01*
X136511928Y-98310000D01*
X136524188Y-98434482D01*
X136560498Y-98554180D01*
X136619463Y-98664494D01*
X136698815Y-98761185D01*
X136795506Y-98840537D01*
X136905820Y-98899502D01*
X136978380Y-98921513D01*
X136846525Y-99053368D01*
X136684010Y-99296589D01*
X136572068Y-99566842D01*
X136515000Y-99853740D01*
X136515000Y-100146260D01*
X136572068Y-100433158D01*
X136684010Y-100703411D01*
X136846525Y-100946632D01*
X137053368Y-101153475D01*
X137227760Y-101270000D01*
X137053368Y-101386525D01*
X136846525Y-101593368D01*
X136684010Y-101836589D01*
X136572068Y-102106842D01*
X136515000Y-102393740D01*
X136515000Y-102686260D01*
X136572068Y-102973158D01*
X136684010Y-103243411D01*
X136846525Y-103486632D01*
X137053368Y-103693475D01*
X137296589Y-103855990D01*
X137566842Y-103967932D01*
X137853740Y-104025000D01*
X138146260Y-104025000D01*
X138433158Y-103967932D01*
X138703411Y-103855990D01*
X138946632Y-103693475D01*
X139153475Y-103486632D01*
X139315990Y-103243411D01*
X139427932Y-102973158D01*
X139485000Y-102686260D01*
X139485000Y-102393740D01*
X139427932Y-102106842D01*
X139315990Y-101836589D01*
X139153475Y-101593368D01*
X138946632Y-101386525D01*
X138772240Y-101270000D01*
X138946632Y-101153475D01*
X139153475Y-100946632D01*
X139315990Y-100703411D01*
X139427932Y-100433158D01*
X139485000Y-100146260D01*
X139485000Y-99853740D01*
X139427932Y-99566842D01*
X139315990Y-99296589D01*
X139153475Y-99053368D01*
X139021620Y-98921513D01*
X139094180Y-98899502D01*
X139204494Y-98840537D01*
X139301185Y-98761185D01*
X139380537Y-98664494D01*
X139439502Y-98554180D01*
X139475812Y-98434482D01*
X139488072Y-98310000D01*
X139488072Y-97489721D01*
X141395000Y-97489721D01*
X141395000Y-97910279D01*
X141477047Y-98322756D01*
X141637988Y-98711302D01*
X141871637Y-99060983D01*
X142169017Y-99358363D01*
X142518698Y-99592012D01*
X142907244Y-99752953D01*
X142970268Y-99765489D01*
X142907988Y-99858698D01*
X142747047Y-100247244D01*
X142665000Y-100659721D01*
X142665000Y-101080279D01*
X142747047Y-101492756D01*
X142907988Y-101881302D01*
X142976166Y-101983338D01*
X142907244Y-101997047D01*
X142518698Y-102157988D01*
X142169017Y-102391637D01*
X141871637Y-102689017D01*
X141637988Y-103038698D01*
X141477047Y-103427244D01*
X141395000Y-103839721D01*
X141395000Y-104260279D01*
X141477047Y-104672756D01*
X141637988Y-105061302D01*
X141871637Y-105410983D01*
X142169017Y-105708363D01*
X142518698Y-105942012D01*
X142907244Y-106102953D01*
X142970268Y-106115489D01*
X142907988Y-106208698D01*
X142747047Y-106597244D01*
X142665000Y-107009721D01*
X142665000Y-107430279D01*
X142747047Y-107842756D01*
X142907988Y-108231302D01*
X142970268Y-108324511D01*
X142907244Y-108337047D01*
X142518698Y-108497988D01*
X142169017Y-108731637D01*
X141871637Y-109029017D01*
X141637988Y-109378698D01*
X141477047Y-109767244D01*
X141395000Y-110179721D01*
X141395000Y-110600279D01*
X141477047Y-111012756D01*
X141637988Y-111401302D01*
X141871637Y-111750983D01*
X142169017Y-112048363D01*
X142518698Y-112282012D01*
X142907244Y-112442953D01*
X143319721Y-112525000D01*
X143740279Y-112525000D01*
X144152756Y-112442953D01*
X144541302Y-112282012D01*
X144890983Y-112048363D01*
X145188363Y-111750983D01*
X145422012Y-111401302D01*
X145582953Y-111012756D01*
X145665000Y-110600279D01*
X145665000Y-110179721D01*
X145582953Y-109767244D01*
X145422012Y-109378698D01*
X145359732Y-109285489D01*
X145422756Y-109272953D01*
X145811302Y-109112012D01*
X146160983Y-108878363D01*
X146458363Y-108580983D01*
X146692012Y-108231302D01*
X146852953Y-107842756D01*
X146935000Y-107430279D01*
X146935000Y-107009721D01*
X146852953Y-106597244D01*
X146692012Y-106208698D01*
X146458363Y-105859017D01*
X146160983Y-105561637D01*
X145811302Y-105327988D01*
X145422756Y-105167047D01*
X145359732Y-105154511D01*
X145422012Y-105061302D01*
X145582953Y-104672756D01*
X145665000Y-104260279D01*
X145665000Y-103839721D01*
X145582953Y-103427244D01*
X145422012Y-103038698D01*
X145353834Y-102936662D01*
X145422756Y-102922953D01*
X145811302Y-102762012D01*
X146160983Y-102528363D01*
X146458363Y-102230983D01*
X146692012Y-101881302D01*
X146852953Y-101492756D01*
X146935000Y-101080279D01*
X146935000Y-100659721D01*
X146852953Y-100247244D01*
X146692012Y-99858698D01*
X146458363Y-99509017D01*
X146160983Y-99211637D01*
X145811302Y-98977988D01*
X145422756Y-98817047D01*
X145359732Y-98804511D01*
X145422012Y-98711302D01*
X145582953Y-98322756D01*
X145665000Y-97910279D01*
X145665000Y-97489721D01*
X154095000Y-97489721D01*
X154095000Y-97910279D01*
X154177047Y-98322756D01*
X154337988Y-98711302D01*
X154571637Y-99060983D01*
X154869017Y-99358363D01*
X155218698Y-99592012D01*
X155607244Y-99752953D01*
X155670268Y-99765489D01*
X155607988Y-99858698D01*
X155447047Y-100247244D01*
X155365000Y-100659721D01*
X155365000Y-101080279D01*
X155447047Y-101492756D01*
X155607988Y-101881302D01*
X155676166Y-101983338D01*
X155607244Y-101997047D01*
X155218698Y-102157988D01*
X154869017Y-102391637D01*
X154571637Y-102689017D01*
X154337988Y-103038698D01*
X154177047Y-103427244D01*
X154095000Y-103839721D01*
X154095000Y-104260279D01*
X154177047Y-104672756D01*
X154337988Y-105061302D01*
X154571637Y-105410983D01*
X154869017Y-105708363D01*
X155218698Y-105942012D01*
X155607244Y-106102953D01*
X155670268Y-106115489D01*
X155607988Y-106208698D01*
X155447047Y-106597244D01*
X155365000Y-107009721D01*
X155365000Y-107430279D01*
X155447047Y-107842756D01*
X155607988Y-108231302D01*
X155670268Y-108324511D01*
X155607244Y-108337047D01*
X155218698Y-108497988D01*
X154869017Y-108731637D01*
X154571637Y-109029017D01*
X154337988Y-109378698D01*
X154177047Y-109767244D01*
X154095000Y-110179721D01*
X154095000Y-110600279D01*
X154177047Y-111012756D01*
X154337988Y-111401302D01*
X154571637Y-111750983D01*
X154869017Y-112048363D01*
X155218698Y-112282012D01*
X155607244Y-112442953D01*
X156019721Y-112525000D01*
X156440279Y-112525000D01*
X156852756Y-112442953D01*
X157241302Y-112282012D01*
X157590983Y-112048363D01*
X157888363Y-111750983D01*
X158122012Y-111401302D01*
X158282953Y-111012756D01*
X158365000Y-110600279D01*
X158365000Y-110179721D01*
X158282953Y-109767244D01*
X158122012Y-109378698D01*
X158059732Y-109285489D01*
X158122756Y-109272953D01*
X158511302Y-109112012D01*
X158860983Y-108878363D01*
X159158363Y-108580983D01*
X159392012Y-108231302D01*
X159552953Y-107842756D01*
X159635000Y-107430279D01*
X159635000Y-107009721D01*
X159552953Y-106597244D01*
X159392012Y-106208698D01*
X159158363Y-105859017D01*
X158860983Y-105561637D01*
X158511302Y-105327988D01*
X158122756Y-105167047D01*
X158059732Y-105154511D01*
X158122012Y-105061302D01*
X158282953Y-104672756D01*
X158365000Y-104260279D01*
X158365000Y-103839721D01*
X158282953Y-103427244D01*
X158122012Y-103038698D01*
X158053834Y-102936662D01*
X158122756Y-102922953D01*
X158511302Y-102762012D01*
X158860983Y-102528363D01*
X159158363Y-102230983D01*
X159392012Y-101881302D01*
X159552953Y-101492756D01*
X159635000Y-101080279D01*
X159635000Y-100659721D01*
X159552953Y-100247244D01*
X159392012Y-99858698D01*
X159158363Y-99509017D01*
X158860983Y-99211637D01*
X158511302Y-98977988D01*
X158122756Y-98817047D01*
X158059732Y-98804511D01*
X158122012Y-98711302D01*
X158282953Y-98322756D01*
X158365000Y-97910279D01*
X158365000Y-97489721D01*
X158282953Y-97077244D01*
X158122012Y-96688698D01*
X158069428Y-96610000D01*
X160511928Y-96610000D01*
X160511928Y-98310000D01*
X160524188Y-98434482D01*
X160560498Y-98554180D01*
X160619463Y-98664494D01*
X160698815Y-98761185D01*
X160795506Y-98840537D01*
X160905820Y-98899502D01*
X160978380Y-98921513D01*
X160846525Y-99053368D01*
X160684010Y-99296589D01*
X160572068Y-99566842D01*
X160515000Y-99853740D01*
X160515000Y-100146260D01*
X160572068Y-100433158D01*
X160684010Y-100703411D01*
X160846525Y-100946632D01*
X161053368Y-101153475D01*
X161227760Y-101270000D01*
X161053368Y-101386525D01*
X160846525Y-101593368D01*
X160684010Y-101836589D01*
X160572068Y-102106842D01*
X160515000Y-102393740D01*
X160515000Y-102686260D01*
X160572068Y-102973158D01*
X160684010Y-103243411D01*
X160846525Y-103486632D01*
X161053368Y-103693475D01*
X161296589Y-103855990D01*
X161566842Y-103967932D01*
X161853740Y-104025000D01*
X162146260Y-104025000D01*
X162433158Y-103967932D01*
X162703411Y-103855990D01*
X162946632Y-103693475D01*
X163153475Y-103486632D01*
X163315990Y-103243411D01*
X163427932Y-102973158D01*
X163485000Y-102686260D01*
X163485000Y-102393740D01*
X163427932Y-102106842D01*
X163315990Y-101836589D01*
X163153475Y-101593368D01*
X162946632Y-101386525D01*
X162772240Y-101270000D01*
X162946632Y-101153475D01*
X163153475Y-100946632D01*
X163315990Y-100703411D01*
X163427932Y-100433158D01*
X163485000Y-100146260D01*
X163485000Y-99853740D01*
X163427932Y-99566842D01*
X163315990Y-99296589D01*
X163153475Y-99053368D01*
X163021620Y-98921513D01*
X163094180Y-98899502D01*
X163204494Y-98840537D01*
X163301185Y-98761185D01*
X163380537Y-98664494D01*
X163439502Y-98554180D01*
X163475812Y-98434482D01*
X163488072Y-98310000D01*
X163488072Y-96610000D01*
X163475812Y-96485518D01*
X163439502Y-96365820D01*
X163380537Y-96255506D01*
X163301185Y-96158815D01*
X163204494Y-96079463D01*
X163094180Y-96020498D01*
X162974482Y-95984188D01*
X162850000Y-95971928D01*
X161150000Y-95971928D01*
X161025518Y-95984188D01*
X160905820Y-96020498D01*
X160795506Y-96079463D01*
X160698815Y-96158815D01*
X160619463Y-96255506D01*
X160560498Y-96365820D01*
X160524188Y-96485518D01*
X160511928Y-96610000D01*
X158069428Y-96610000D01*
X158053834Y-96586662D01*
X158122756Y-96572953D01*
X158511302Y-96412012D01*
X158860983Y-96178363D01*
X159158363Y-95880983D01*
X159392012Y-95531302D01*
X159552953Y-95142756D01*
X159635000Y-94730279D01*
X159635000Y-94309721D01*
X159552953Y-93897244D01*
X159392012Y-93508698D01*
X159158363Y-93159017D01*
X158860983Y-92861637D01*
X158511302Y-92627988D01*
X158122756Y-92467047D01*
X157710279Y-92385000D01*
X157289721Y-92385000D01*
X156877244Y-92467047D01*
X156488698Y-92627988D01*
X156139017Y-92861637D01*
X155841637Y-93159017D01*
X155607988Y-93508698D01*
X155447047Y-93897244D01*
X155365000Y-94309721D01*
X155365000Y-94730279D01*
X155447047Y-95142756D01*
X155607988Y-95531302D01*
X155676166Y-95633338D01*
X155607244Y-95647047D01*
X155218698Y-95807988D01*
X154869017Y-96041637D01*
X154571637Y-96339017D01*
X154337988Y-96688698D01*
X154177047Y-97077244D01*
X154095000Y-97489721D01*
X145665000Y-97489721D01*
X145582953Y-97077244D01*
X145422012Y-96688698D01*
X145353834Y-96586662D01*
X145422756Y-96572953D01*
X145811302Y-96412012D01*
X146160983Y-96178363D01*
X146458363Y-95880983D01*
X146692012Y-95531302D01*
X146852953Y-95142756D01*
X146935000Y-94730279D01*
X146935000Y-94309721D01*
X146852953Y-93897244D01*
X146692012Y-93508698D01*
X146458363Y-93159017D01*
X146160983Y-92861637D01*
X145811302Y-92627988D01*
X145422756Y-92467047D01*
X145010279Y-92385000D01*
X144589721Y-92385000D01*
X144177244Y-92467047D01*
X143788698Y-92627988D01*
X143439017Y-92861637D01*
X143141637Y-93159017D01*
X142907988Y-93508698D01*
X142747047Y-93897244D01*
X142665000Y-94309721D01*
X142665000Y-94730279D01*
X142747047Y-95142756D01*
X142907988Y-95531302D01*
X142976166Y-95633338D01*
X142907244Y-95647047D01*
X142518698Y-95807988D01*
X142169017Y-96041637D01*
X141871637Y-96339017D01*
X141637988Y-96688698D01*
X141477047Y-97077244D01*
X141395000Y-97489721D01*
X139488072Y-97489721D01*
X139488072Y-96610000D01*
X139475812Y-96485518D01*
X139439502Y-96365820D01*
X139380537Y-96255506D01*
X139301185Y-96158815D01*
X139204494Y-96079463D01*
X139094180Y-96020498D01*
X138974482Y-95984188D01*
X138850000Y-95971928D01*
X137150000Y-95971928D01*
X137025518Y-95984188D01*
X136905820Y-96020498D01*
X136795506Y-96079463D01*
X136698815Y-96158815D01*
X136619463Y-96255506D01*
X136560498Y-96365820D01*
X136524188Y-96485518D01*
X136511928Y-96610000D01*
X135660000Y-96610000D01*
X135660000Y-86032279D01*
X135669580Y-85934576D01*
X135688580Y-85871644D01*
X135719445Y-85813595D01*
X135760989Y-85762657D01*
X135811644Y-85720752D01*
X135869471Y-85689485D01*
X135932272Y-85670044D01*
X136027835Y-85660000D01*
X163967721Y-85660000D01*
X164065424Y-85669580D01*
G37*
%TD.AperFunction*%
%TD*%
M02*
