%TF.GenerationSoftware,KiCad,Pcbnew,(5.1.9-0-10_14)*%
%TF.CreationDate,2021-03-07T16:19:06+01:00*%
%TF.ProjectId,Klinke Dual,4b6c696e-6b65-4204-9475-616c2e6b6963,rev?*%
%TF.SameCoordinates,Original*%
%TF.FileFunction,Soldermask,Top*%
%TF.FilePolarity,Negative*%
%FSLAX46Y46*%
G04 Gerber Fmt 4.6, Leading zero omitted, Abs format (unit mm)*
G04 Created by KiCad (PCBNEW (5.1.9-0-10_14)) date 2021-03-07 16:19:06*
%MOMM*%
%LPD*%
G01*
G04 APERTURE LIST*
%ADD10C,5.600000*%
%ADD11C,0.100000*%
%ADD12O,1.700000X1.700000*%
%ADD13R,1.700000X1.700000*%
%ADD14C,3.000000*%
%ADD15C,2.900000*%
G04 APERTURE END LIST*
D10*
%TO.C,H1*%
X139000000Y-89000000D03*
%TD*%
%TO.C,H2*%
X161000000Y-89000000D03*
%TD*%
%TO.C,H3*%
X139000000Y-111000000D03*
%TD*%
%TO.C,H4*%
X161000000Y-111000000D03*
%TD*%
D11*
%TO.C,JP2*%
G36*
X162749398Y-94650000D02*
G01*
X162749398Y-94674534D01*
X162744588Y-94723365D01*
X162735016Y-94771490D01*
X162720772Y-94818445D01*
X162701995Y-94863778D01*
X162678864Y-94907051D01*
X162651604Y-94947850D01*
X162620476Y-94985779D01*
X162585779Y-95020476D01*
X162547850Y-95051604D01*
X162507051Y-95078864D01*
X162463778Y-95101995D01*
X162418445Y-95120772D01*
X162371490Y-95135016D01*
X162323365Y-95144588D01*
X162274534Y-95149398D01*
X162250000Y-95149398D01*
X162250000Y-95150000D01*
X161750000Y-95150000D01*
X161750000Y-95149398D01*
X161725466Y-95149398D01*
X161676635Y-95144588D01*
X161628510Y-95135016D01*
X161581555Y-95120772D01*
X161536222Y-95101995D01*
X161492949Y-95078864D01*
X161452150Y-95051604D01*
X161414221Y-95020476D01*
X161379524Y-94985779D01*
X161348396Y-94947850D01*
X161321136Y-94907051D01*
X161298005Y-94863778D01*
X161279228Y-94818445D01*
X161264984Y-94771490D01*
X161255412Y-94723365D01*
X161250602Y-94674534D01*
X161250602Y-94650000D01*
X161250000Y-94650000D01*
X161250000Y-94150000D01*
X162750000Y-94150000D01*
X162750000Y-94650000D01*
X162749398Y-94650000D01*
G37*
G36*
X161250000Y-93850000D02*
G01*
X161250000Y-93350000D01*
X161250602Y-93350000D01*
X161250602Y-93325466D01*
X161255412Y-93276635D01*
X161264984Y-93228510D01*
X161279228Y-93181555D01*
X161298005Y-93136222D01*
X161321136Y-93092949D01*
X161348396Y-93052150D01*
X161379524Y-93014221D01*
X161414221Y-92979524D01*
X161452150Y-92948396D01*
X161492949Y-92921136D01*
X161536222Y-92898005D01*
X161581555Y-92879228D01*
X161628510Y-92864984D01*
X161676635Y-92855412D01*
X161725466Y-92850602D01*
X161750000Y-92850602D01*
X161750000Y-92850000D01*
X162250000Y-92850000D01*
X162250000Y-92850602D01*
X162274534Y-92850602D01*
X162323365Y-92855412D01*
X162371490Y-92864984D01*
X162418445Y-92879228D01*
X162463778Y-92898005D01*
X162507051Y-92921136D01*
X162547850Y-92948396D01*
X162585779Y-92979524D01*
X162620476Y-93014221D01*
X162651604Y-93052150D01*
X162678864Y-93092949D01*
X162701995Y-93136222D01*
X162720772Y-93181555D01*
X162735016Y-93228510D01*
X162744588Y-93276635D01*
X162749398Y-93325466D01*
X162749398Y-93350000D01*
X162750000Y-93350000D01*
X162750000Y-93850000D01*
X161250000Y-93850000D01*
G37*
%TD*%
%TO.C,JP1*%
G36*
X137250602Y-93350000D02*
G01*
X137250602Y-93325466D01*
X137255412Y-93276635D01*
X137264984Y-93228510D01*
X137279228Y-93181555D01*
X137298005Y-93136222D01*
X137321136Y-93092949D01*
X137348396Y-93052150D01*
X137379524Y-93014221D01*
X137414221Y-92979524D01*
X137452150Y-92948396D01*
X137492949Y-92921136D01*
X137536222Y-92898005D01*
X137581555Y-92879228D01*
X137628510Y-92864984D01*
X137676635Y-92855412D01*
X137725466Y-92850602D01*
X137750000Y-92850602D01*
X137750000Y-92850000D01*
X138250000Y-92850000D01*
X138250000Y-92850602D01*
X138274534Y-92850602D01*
X138323365Y-92855412D01*
X138371490Y-92864984D01*
X138418445Y-92879228D01*
X138463778Y-92898005D01*
X138507051Y-92921136D01*
X138547850Y-92948396D01*
X138585779Y-92979524D01*
X138620476Y-93014221D01*
X138651604Y-93052150D01*
X138678864Y-93092949D01*
X138701995Y-93136222D01*
X138720772Y-93181555D01*
X138735016Y-93228510D01*
X138744588Y-93276635D01*
X138749398Y-93325466D01*
X138749398Y-93350000D01*
X138750000Y-93350000D01*
X138750000Y-93850000D01*
X137250000Y-93850000D01*
X137250000Y-93350000D01*
X137250602Y-93350000D01*
G37*
G36*
X138750000Y-94150000D02*
G01*
X138750000Y-94650000D01*
X138749398Y-94650000D01*
X138749398Y-94674534D01*
X138744588Y-94723365D01*
X138735016Y-94771490D01*
X138720772Y-94818445D01*
X138701995Y-94863778D01*
X138678864Y-94907051D01*
X138651604Y-94947850D01*
X138620476Y-94985779D01*
X138585779Y-95020476D01*
X138547850Y-95051604D01*
X138507051Y-95078864D01*
X138463778Y-95101995D01*
X138418445Y-95120772D01*
X138371490Y-95135016D01*
X138323365Y-95144588D01*
X138274534Y-95149398D01*
X138250000Y-95149398D01*
X138250000Y-95150000D01*
X137750000Y-95150000D01*
X137750000Y-95149398D01*
X137725466Y-95149398D01*
X137676635Y-95144588D01*
X137628510Y-95135016D01*
X137581555Y-95120772D01*
X137536222Y-95101995D01*
X137492949Y-95078864D01*
X137452150Y-95051604D01*
X137414221Y-95020476D01*
X137379524Y-94985779D01*
X137348396Y-94947850D01*
X137321136Y-94907051D01*
X137298005Y-94863778D01*
X137279228Y-94818445D01*
X137264984Y-94771490D01*
X137255412Y-94723365D01*
X137250602Y-94674534D01*
X137250602Y-94650000D01*
X137250000Y-94650000D01*
X137250000Y-94150000D01*
X138750000Y-94150000D01*
G37*
%TD*%
D12*
%TO.C,J3*%
X162000000Y-102540000D03*
X162000000Y-100000000D03*
D13*
X162000000Y-97460000D03*
%TD*%
D12*
%TO.C,J2*%
X138000000Y-102540000D03*
X138000000Y-100000000D03*
D13*
X138000000Y-97460000D03*
%TD*%
D14*
%TO.C,J1*%
X143530000Y-104050000D03*
X144800000Y-100870000D03*
X156230000Y-104050000D03*
X157500000Y-100870000D03*
X143530000Y-110390000D03*
X144800000Y-107220000D03*
X143530000Y-97700000D03*
X144800000Y-94520000D03*
X156230000Y-110390000D03*
X157500000Y-107220000D03*
X156230000Y-97700000D03*
X157500000Y-94520000D03*
D15*
X154960000Y-113270000D03*
%TD*%
M02*
