M48
; DRILL file {KiCad (5.1.9-0-10_14)} date Saturday, March 13, 2021 at 12:52:42 PM
; FORMAT={-:-/ absolute / inch / decimal}
; #@! TF.CreationDate,2021-03-13T12:52:42+01:00
; #@! TF.GenerationSoftware,Kicad,Pcbnew,(5.1.9-0-10_14)
FMAT,2
INCH
T1C0.0118
T2C0.0394
T3C0.0591
T4C0.1260
T5C0.1260
%
G90
G05
T1
X5.8465Y-3.2087
T2
X5.6305Y-3.487
X5.7305Y-3.487
X5.8305Y-3.487
X5.9805Y-3.487
X6.0805Y-3.487
X6.1805Y-3.487
T3
X5.6311Y-3.8465
X5.6311Y-4.0965
X5.6311Y-4.3461
X5.6811Y-3.7213
X5.6811Y-3.9713
X5.6811Y-4.2213
X6.0811Y-4.4594
X6.1311Y-3.8465
X6.1311Y-4.0965
X6.1311Y-4.3461
X6.1811Y-3.7213
X6.1811Y-3.9713
X6.1811Y-4.2213
T4
X5.7087Y-3.3071
X6.1024Y-3.3071
T5
X5.9055Y-4.3701
T0
M30
